<svg width="12" height="7" viewBox="0 0 12 7" fill="none" xmlns="http://www.w3.org/2000/svg">
<path d="M0.69922 0.699802C0.882553 0.516469 1.11588 0.424802 1.39922 0.424802C1.68255 0.424803 1.91589 0.516469 2.09922 0.699802L5.99922 4.5998L9.89922 0.699804C10.0826 0.516471 10.3159 0.424804 10.5992 0.424804C10.8826 0.424805 11.1159 0.516471 11.2992 0.699804C11.4826 0.883138 11.5742 1.11647 11.5742 1.3998C11.5742 1.68314 11.4826 1.91647 11.2992 2.0998L6.69922 6.6998C6.59922 6.7998 6.49088 6.8708 6.37422 6.9128C6.25755 6.95414 6.13255 6.9748 5.99922 6.9748C5.86588 6.9748 5.74088 6.95414 5.62422 6.9128C5.50755 6.8708 5.39922 6.7998 5.29922 6.6998L0.699219 2.0998C0.515886 1.91647 0.424218 1.68313 0.424218 1.3998C0.424218 1.11647 0.515886 0.883135 0.69922 0.699802Z" fill="black"/>
</svg>
