<svg width="23" height="20" viewBox="0 0 23 20" fill="none" xmlns="http://www.w3.org/2000/svg">
<path d="M0.500238 9.99964C0.500238 9.53551 0.684614 9.09039 1.0128 8.7622C1.34099 8.43402 1.78611 8.24964 2.25024 8.24964H16.1102L11.5136 3.65297C11.2045 3.32123 11.0362 2.88246 11.0442 2.42909C11.0522 1.97572 11.2358 1.54315 11.5565 1.22252C11.8771 0.901894 12.3096 0.718233 12.763 0.710234C13.2164 0.702234 13.6552 0.870522 13.9869 1.17964L21.5702 8.76297C21.898 9.0911 22.082 9.53589 22.082 9.99964C22.082 10.4634 21.898 10.9082 21.5702 11.2363L13.9869 18.8196C13.6552 19.1288 13.2164 19.2971 12.763 19.2891C12.3096 19.2811 11.8771 19.0974 11.5565 18.7768C11.2358 18.4561 11.0522 18.0236 11.0442 17.5702C11.0362 17.1168 11.2045 16.6781 11.5136 16.3463L16.1102 11.7496H2.25024C1.78611 11.7496 1.34099 11.5653 1.0128 11.2371C0.684614 10.9089 0.500238 10.4638 0.500238 9.99964Z" fill="black"/>
</svg>
