<svg width="23" height="23" viewBox="0 0 23 23" fill="none" xmlns="http://www.w3.org/2000/svg">
<path d="M11.5 1.5C17.305 1.5 22 6.195 22 12C22 17.805 17.305 22.5 11.5 22.5C5.695 22.5 1 17.805 1 12C1 6.195 5.695 1.5 11.5 1.5ZM9.58 17.535C14.23 17.535 16.78 13.68 16.78 10.335V10.005C17.275 9.645 17.71 9.195 18.04 8.685C17.59 8.88 17.095 9.015 16.585 9.09C17.11 8.775 17.515 8.28 17.695 7.695C17.2 7.98 16.66 8.19 16.09 8.31C15.625 7.815 14.965 7.515 14.245 7.515C12.85 7.515 11.71 8.655 11.71 10.05C11.71 10.245 11.725 10.44 11.785 10.62C9.685 10.515 7.81 9.51 6.565 7.98C6.355 8.355 6.22 8.79 6.22 9.255C6.22 10.125 6.67 10.905 7.345 11.355C6.925 11.355 6.535 11.235 6.205 11.04V11.07C6.205 12.3 7.075 13.32 8.23 13.56C8.02 13.62 7.795 13.65 7.57 13.65C7.405 13.65 7.255 13.635 7.09 13.605C7.405 14.61 8.35 15.345 9.445 15.36C8.575 16.035 7.48 16.44 6.295 16.44C6.085 16.44 5.89 16.44 5.695 16.41C6.805 17.13 8.14 17.55 9.565 17.55" fill="#EB6928"/>
</svg>
